# xmcd CD database file
#
# Track frame offsets:
#	150
#	14422
#	36920
#	51340
#
# Disc length: 980 seconds
#
# Revision: 2
# Processed by: cddbd v1.5.2PL0 Copyright (c) Steve Scherf et al.
# Submitted via: CDex 1.70beta2
#
DISCID=2f03d204
DTITLE=クラムボン - シカゴ
DYEAR=2000
DGENRE=JPop
TTITLE0=シカゴ
TTITLE1=246
TTITLE2=シカゴ(instrumental)
TTITLE3=246(instrumental)
EXTD=YEAR: 2000
EXTT0=
EXTT1=
EXTT2=
EXTT3=
PLAYORDER=
